<?xml version="1.0" encoding="UTF-8"?>
<svg xmlns="http://www.w3.org/2000/svg" viewBox="0 0 880 562">
    <defs>
        <style>
            .cls-2,.cls-3,.cls-4,.cls-5,.cls-6,.cls-7,.cls-8,.cls-9,.cls-10,.cls-11,.cls-12,.cls-13,.cls-14,.cls-15{stroke: black; stroke-width:12px;}
            .cls-1{fill:transparent;}

        </style>
    </defs>
    <path class="cls-1"
          d="m879.8918989,287.9997364c0,89.9691721-.0249576,179.9384052.0957421,269.9074247.0045766,3.4229006-.6719644,4.0940575-4.0948209,4.0928373-290.5996265-.1018328-581.1992529-.1017718-871.7988775,0-3.422039.0012203-4.0959187-.6693876-4.0939382-4.0924102C.1068055,373.3042149.1067707,188.7007654.0001017,4.0973817-.0018754.6758059.6677458-.0116565,4.093564.0001483c43.322978.1492817,86.6466396.0981398,129.9701334.0981398-.2317581.7371893-.7941896.969788-1.5003563.9828559-7.3925919.1368034-14.4521993,2.05568-20.9691002,5.2457764-14.2482972,6.9747081-25.386677,16.7338272-27.2326644,33.8229004-1.0142851,23.9645407-.5663521,47.9343324-.2587066,71.9036284-.5525079,17.6596043-.3251128,35.3200324-.0559563,52.9805062-.0171546,15.3276389-.0343167,30.6552626-.0514713,45.9829015.0319217,14.9964535.0638586,29.9929222.0957955,44.9893757-.1773807,6.6384441-.4351643,13.2759731-.5114407,19.9155765-.0919512,8.003852.3246017,15.9386663,4.5935769,23.0897219-.0925004.8325397.0585192,1.551837.9057667,1.947362l.0281155.0396898c.2939158.3813392.5878315.7627089.8817473,1.1440481l-.0749263-.0647361c.3491627.3734989.6983178.7470282,1.047473,1.1205576-.0000076,0-.0803648.0515876-.0803648.0515876,9.7764574,14.7449221,24.5806951,20.347344,41.1936667,22.7658886,9.0970409,1.3243452,18.1680258.0140333,27.2449602-.0794406,13.6214656-.1402718,27.2436025.5489149,40.8761129-.7880603,7.7749425-.7625258,15.6859467-.1379838,24.626377-.1379838-8.1679946,8.6443188-15.4517935,16.3528617-22.7356077,24.0614351-18.1983838,17.7492343-35.5620599,36.3115753-53.2008191,54.6059416,0,0,.0391603.0737357.039145.0737357-.3671945.3712413-.7344042.7425132-1.1015834,1.113785-16.5494563,17.036252-33.0988974,34.0725041-49.6483385,51.1087867-14.3831996,14.3140699-28.5817037,28.806576-42.290479,43.7720952,0,0,.0629089-.0297445.0629013-.0297445-.3638154.3536387-.7276232.7073079-1.0914272,1.0609771.0000076,0,.0710362-.0750781.07104-.0750781-.348686.3675195-.6973758.7350084-1.0460695,1.1024974-.0000076,0,.0744076-.0766034.0744-.0766034-.3538385.3616926-.707677.7233852-1.0615078,1.0851083.0000038,0,.0713451-.0752916.0713413-.0752916-.3626522.3517473-.7253082.7034945-1.0879605,1.0552418.0000038,0,.0751437-.0700749.0751399-.0700749-.3606156.3734989-.7212275.7470282-1.0818355,1.1205271-16.0448118,16.4046628-32.0633178,32.8351957-48.1640505,49.1848237-2.298886,2.334406-.0825217,3.4443166.8714411,4.976751,1.3795255,2.2161603,2.9417486,2.0599638,5.012851.7422996,11.6345499-7.4021293,23.3590793-14.6626444,35.0123856-22.0354868,21.4950601-13.5994707,42.9619781-27.2433904,64.4406198-40.8687617,1.5973265-.8455663,3.2558342-1.5935707,4.7828567-2.5511897,24.6966504-15.4882285,49.4065958-30.9556511,74.0394105-46.5449192,6.2536102-3.9576601,12.9814916-7.2723824,18.2459039-12.6692167.3122907-.0691292.6268698-.1254758.9437523-.1690705.9622112.3498558,1.6008275-.1015277,2.1174322-.854993l-.0351634.051191c.3740288.0378899.6544971-.1062564.8413894-.4324081,22.9286327-14.3598306,45.8977223-28.6560538,68.7289653-43.1690607,2.5329249-1.6100446,6.1346038-1.9829333,7.3849871-5.4041865,8.9175321-3.9276411,16.763198-9.6667044,24.9552807-14.8132276,15.4019393-9.6759786,30.753109-19.4328621,46.125392-29.1560962l-.0200759.0610143c.3495594.012996.6164657-.1291977.8007189-.4265508,6.0617446-3.7356902,12.2337238-7.3074351,18.138461-11.2765964,2.933925-1.9721643,5.8744708-2.6385011,9.3210951-2.6363351,88.394037.0560721,176.7887452.2402132,265.1820194-.0237956,60.2214188-.1798701,120.4538213,1.2915196,180.6635851-.8621927,13.0153735-.4655694,24.5519617-5.2565624,34.6146463-13.4441894,2.4932611-2.028633,5.659585-3.7108269,6.1666093-7.467506,2.1946849-1.2823979,3.7145374-3.277351,4.6599984-5.4844812,1.6124216-3.7643364,2.8156356-7.7039058,4.1907461-11.5698615Z"/>
    <path class="cls-5"
          d="m84.3615765,40.1498208c1.8459874-17.0890732,12.9843672-26.8481924,27.2326644-33.8229004,6.516901-3.1900963,13.5765083-5.108973,20.9691002-5.2457764.7061667-.0130679,1.2685982-.2456666,1.5003563-.9828559,231.6133053,0,463.2266106,0,694.8399464.0000064,4.3770435,1.0086982,8.875519,1.6585619,13.1094681,3.0902648,15.5727679,5.2657894,27.8288558,14.2359359,32.9318064,30.7754326-.0195878,4.2299211-3.0796129,4.0463368-5.9685348,4.1111835l-.0516849-.1131243c-.0356973-1.0494683.1286935-2.1647253-.9446677-2.8730819-.2346261-.1346471-.3071192-.32958-.2175402-.5847951.1019663-.9502896.0756662-1.8526221-.8980475-2.4006065-3.3450547-5.1602285-6.7485065-10.1926627-11.7784758-14.0240099-10.5426765-8.0305009-22.6774546-10.6469625-35.5067748-10.7414126-15.3098279-.1127134-30.6224628.2171908-45.9337553.2027723-36.1149111-.0340097-72.2297611-.2147626-108.3446111-.2272372-25.296053-.0087384-50.5920451.2429626-75.8880981.2335264-35.1158736-.0131-70.2316862-.230715-105.3475598-.2330774-34.2825695-.0023061-68.5650779.2146043-102.8476779.224503-26.1297233.0075438-52.2595381-.2260884-78.389292-.2270989-24.7964428-.0009591-49.5928856.2269702-74.3893436.2345694-31.118778.0095363-62.2397069-.6846569-93.3542286.3880984-21.8974829.7549753-38.027381,13.2494347-44.0358923,34.1396017-1.7033964.7138975-.0576878,4.0990607-2.8265126,3.7695493-2.1109639-.2512224-2.3928433-2.3637615-3.0704979-3.969741-.2456176-.5820952-.5257578-1.1496156-.790147-1.7237904Z"/>
    <path class="cls-13"
          d="m874.9450403,33.9638356c-5.1030726-16.5393404-17.3591606-25.5094868-32.9319284-30.7752762-4.233949-1.431703-8.7324246-2.0815667-13.1094681-3.0902648,15.4706796-.0000064,30.9430067.1226276,46.4106962-.0914948,3.5929224-.0497367,4.6925836.5629867,4.6856272,4.4978355-.1434606,81.5026303-.1080684,163.005569-.1080684,244.5084466-.3233508-.0021355-.6424912-.0398271-.9574211-.1130289-.0673063-2.6334674-.1345515-5.2669501-.2018578-7.9004328.1426673-.3214537.1425453-.6428616-.0003051-.9642238.0001831-.6835886.0003051-1.367162.0005492-2.0507354-.0206862-14.3157783-.0413723-28.6315413-.0619974-42.9473195.0004271-11.314349.1376636-22.630803-.0377721-33.9424217-.1698217-10.9507192.7183404-21.929566-.7501324-32.8506171-.0411892-16.8871789.0136077-33.7754866-.1866635-50.6607817-.0544918-4.5942144.4992136-9.2557504-.7034512-13.8043719.1047122-9.9925015,1.3949424-20.0664076-2.0478071-29.8153135Z"/>
    <path class="cls-11"
          d="m878.9344778,248.9000225c.3149299.0732324.6340703.1109239.9574211.1130594v38.9866545c-1.3751105,3.8659557-2.5783246,7.8055251-4.1907461,11.5698615-.9454609,2.2071302-2.4653135,4.2020833-4.6599984,5.4844812-2.1595367-.812405-5.3801084-.2909465-5.1559168-4.10022,2.9761821-3.8934731,4.6312574-8.416461,6.1886379-12.9860333,1.4046447-1.5209942.65079-3.3714655.7768596-5.0876444.0036002-.5951332.0072005-1.1902664.0109228-1.7858877.0480236-8.70274.0960472-17.4049613.1440098-26.1072131,5.1396852,1.0514894,6.6141381-1.4662492,5.9288101-6.0870582Z"/>
    <path class="cls-2"
          d="m865.8852376,300.9537982c-.2241915,3.8093345,2.9963801,3.287876,5.1559168,4.100281-.5070243,3.7566791-3.6733482,5.4388731-6.1666093,7.467506-10.0626845,8.187627-21.5992727,12.97862-34.6146463,13.4441894-60.2097637,2.1537122-120.4421663.6823226-180.6635851.8621927-88.3932742.2640087-176.7879824.0798677-265.1820194.0237956-3.4466243-.002166-6.3871701.6641708-9.3210951,2.6363351-5.9047373,3.9691613-12.0767165,7.5409062-18.138339,11.2765354-.5990441-.4813416-.7460745-.1139441-.8008409.4266118,0,0,.0200759-.0610143.0193437-.0618075-2.9141542-.6675571-6.841045,1.179955-8.213074-3.3103903.3624653-.2314271.7248697-.4628543,1.0872435-.6943119.6590279.6806447.7747544.2461621.7938845-.3866779l-.0242559.1175745c.399078-.2792928.798156-.5585551,1.197234-.837848,7.2368279-4.66689,14.5129229-9.2745047,21.6918723-14.0287671,3.0253346-2.0035561,6.1523304-2.8555594,9.8228716-2.8492444,51.1371771.0879521,102.2745677.0693427,153.4118973.0584212,46.1404337-.0098233,92.2808675-.0460048,138.4213012-.0633938,49.8048118-.0187619,99.6100508.083315,149.4141914-.106897,16.4412202-.0627837,30.8205373-5.6499825,42.1087086-18.0741048Z"/>
    <path class="cls-9"
          d="m202.0866944,349.0718788c7.2838141-7.7085734,14.567613-15.4171164,22.7356077-24.0614351-8.9404302,0-16.8514345-.6245421-24.626377.1379838-13.6325104,1.3369752-27.2546473.6477885-40.8761129.7880603-9.0769344.0934739-18.1479193,1.4037858-27.2449602.0794406-16.6129717-2.4185447-31.4172093-8.0209665-41.1932396-22.7661632,3.0053121-.0168094,5.7374479-.3740785,5.5189771-4.41664,1.7340137,2.0024578,3.2915544,4.1981174,5.2324144,5.975219,11.8184447,10.8212469,26.2081431,14.4530909,41.7556787,14.3321606,25.2972429-.196771,50.5770339-1.3582082,75.8853216-1.3321551,6.2443655.006437,12.5561593-.7417505,18.8526825-.7938567.9130892-.0075658,2.1094994-.4603832,2.6646694.6635912.6214694,1.2582058-.1824683,2.1470312-1.0491205,3.0258502-10.2675934,10.4115056-19.9761725,21.3731159-30.7814686,31.2555973-1.9462375-1.7839047-5.4693212.1850258-6.8740727-2.8876529Z"/>
    <path class="cls-12"
          d="m108.0438884,496.8434081c-21.4786417,13.6253713-42.9455596,27.2692909-64.4406198,40.8687617-11.6533063,7.3728424-23.3778357,14.6333575-35.0123856,22.0354868-2.0711024,1.3176642-3.6333255,1.4738607-5.012851-.7422996-.9539629-1.5324344-3.1703272-2.642345-.8714411-4.976751,16.1007327-16.349628,32.1192387-32.7801608,48.1640086-49.1847016.3605966-.3734989.7212389-.7470587,1.0818812-1.1206491,0,0-.0751399.0700749-.0743657.0702274.3629154-.3517168.7250489-.7035556,1.0871824-1.0553943.0000038,0-.0713375.0752916-.0706815.0753526.3540559-.3616926.7074596-.7234157,1.0608556-1.0851693,0,0-.0744152.0766034-.0736639.0766644.3489453-.3674584.6971394-.7350084,1.0453258-1.1025584-.0000038,0-.0710324.0750781-.0701171.0752611.3641167-.3536082.7273143-.7073689,1.0905119-1.0611602,0,0-.0629089.0297445-.0626229.0302326,2.0481198,1.3175422,5.4289748.0686411,6.4544993,3.3529782-.0003165.0000305-.0465477-.0324596-.0465438-.0324596-.3467333.3655365-.6934781.731073-1.0402267,1.096579-.0000038,0,.0648464-.0671767.064854-.0671767-.3681937.3449442-.736395.6898884-1.1046001,1.0348325-.0000076,0,.0697891-.0729731.0697929-.0729731-.3667101.3457679-.7334202.6915052-1.1001342,1.0372426-.0000038,0,.0695946-.0693427.0695984-.0693427-.3404291.3715769-.6808658.7431233-1.0213025,1.1146697-.0000038,0,.0670126-.0676343.0670126-.0676343-.3650511.3487576-.7300984.6975151-1.0951457,1.0462727,0,0,.0683093-.0656514.0683131-.0656514-.3965266.2856383-.7930493.5712766-1.1895758.8569149-.0000038,0-.034229.0062845-.0342252.0062845l-.9956126.7578888c.0413304,1.7977245-1.5012411,2.3762618-2.5135011,3.4299782-6.4637592,6.7281656-12.8459675,13.5347346-19.3950914,20.4636982,2.1464744.7650579,3.2737935-.3382021,4.5247909-1.1205881,8.5780145-5.3644967,17.1558726-10.7292984,25.7524947-16.0638981,11.5478924-7.1659735,23.1126494-14.3047957,34.6701679-21.4552716.86174-.0138197,1.5965866-.2361557,1.9052008-1.1589966l-.0311665-.008542c2.267956,2.1416619,6.4337597-.6908951,8.0793844,3.0818918Z"/>
    <path class="cls-14"
          d="m108.0438884,496.8434081c-1.6456247-3.7727869-5.8114284-.9402299-8.0793615-3.0816783,33.3233788-21.8035105,67.2889894-42.5873811,101.0838629-63.6423686-1.0503257,3.6232714,2.4506989,3.5175337,4.0636697,4.9587213-5.2644124,5.3968342-11.9922938,8.7115565-18.2459039,12.6692167-24.6328147,15.5892681-49.3427601,31.0566907-74.0394105,46.5449192-1.5270225.957619-3.1855303,1.7056234-4.7828567,2.5511897Z"/>
    <path class="cls-4"
          d="m205.1120595,435.0780825c-1.6129707-1.4411876-5.1139954-1.3354498-4.0636697-4.9587213,9.0719765-5.7689908,18.1170426-11.5807831,27.2217112-17.2977287,16.9407846-10.6374109,33.916275-21.2195735,50.8773034-31.8247689,1.2801617,2.3844987,4.5469263,1.8904967,5.9460181,4.1026911-1.2503834,3.4212532-4.8520623,3.7941419-7.3849871,5.4041865-22.831243,14.5130069-45.8003326,28.8092301-68.7288585,43.1689996-.5761307-.4310963-.7532902-.0858166-.8414962.4324691,0,0,.0351634-.051191.0346905-.0515571-.8521749-.0766339-1.6266242.0380729-2.1169593.8553591-.3168826.0435947-.6314616.0999414-.9437523.1690705Z"/>
    <path class="cls-15"
          d="m285.0934225,385.0995547c-1.3990918-2.2121944-4.6658564-1.7181924-5.9463842-4.1026606,22.937496-14.3926257,45.8753581-28.7852515,68.8131897-43.1778467,1.37209,4.4903452,5.2989808,2.6428331,8.213135,3.3103903-15.3715508,9.7240273-30.7227205,19.4809108-46.1246598,29.1568894-8.1920827,5.1465232-16.0377486,10.8855865-24.9552807,14.8132276Z"/>
    <path class="cls-15"
          d="m202.0867097,349.0718788c1.4047362,3.0726787,4.92782,1.1037482,6.8741337,2.8876529-.5527291,1.7832641-2.5079367,1.9977597-3.5906951,3.2380273-15.6574957,17.9350228-32.7114439,34.536182-49.3385649,51.5452522-1.6916269-2.6306303-4.9320304-1.6511987-7.1457081-3.0649909,17.6387592-18.2943663,35.0024354-36.8567073,53.2008344-54.6059416Z"/>
    <path class="cls-4"
          d="m148.8858753,403.6778204c2.2136777,1.4137922,5.4540812.4343606,7.1455403,3.0652654-9.3533753,9.7636256-18.5499721,19.6835392-28.1083172,29.2417297-7.9293487,7.9292926-15.1402122,16.5880717-23.8576255,23.7241178-.9500146-2.8429294-4.5326931-1.5346919-5.8903744-3.7348055,16.5494411-17.0362826,33.0988822-34.0725346,49.6482469-51.1085731.3671792-.3712108.7344347-.7426047,1.1016902-1.1139985l-.0391603-.0737357Z"/>
    <path class="cls-14"
          d="m98.1750984,455.9741278c1.3576813,2.2001136,4.9403598.8918761,5.8903058,3.734836-13.1979182,15.1468231-27.5739249,29.1609469-41.7256792,43.3906645-1.0258448-3.2842761-4.4066998-2.035375-6.4548196-3.3529172,13.7084893-14.9660073,27.9069934-29.4585134,42.290193-43.7725833Z"/>
    <path class="cls-10"
          d="m84.3615765,40.1498208c.2643892.5741748.5445294,1.1416952.790147,1.7237904.6776546,1.6059795.9595339,3.7185185,3.0704979,3.969741,2.7688248.3295114,1.1231162-3.0556519,2.8264974-3.7694387-.0446674,15.9960083-.0893273,31.991906-.1339871,47.9878038-1.8367046,5.2928049-.8469347,10.7722449-.6974864,16.1181017.1350855,4.8317887-1.3901522,6.6974678-6.1143753,5.8736303-.3076455-23.969296-.7555785-47.9390877.2587066-71.9036284Z"/>
    <path class="cls-8"
          d="m84.1028699,112.0534492c4.7242231.8238376,6.2494607-1.0418415,6.1143753-5.8736303-.1494483-5.3458568-1.1392182-10.8252968.6975017-16.1180483.0008772,18.0040146.0017544,36.0079835.0026239,54.0119524-1.0877164.9834128-1.0878232,1.966673.0004424,2.9497654-.0002593,1.0046305-.0005187,2.0092609-.0007704,3.0138914-1.7112681,2.930012-.9737061,6.175117-.7277071,9.1748531.4035173,4.9206484-1.4771683,6.6380018-6.1424221,5.8217224-.2691564-17.6604738-.4965516-35.3209018.0559563-52.9805062Z"/>
    <path class="cls-11"
          d="m96.4012608,298.8328506c.2177996,4.0428361-2.5143363,4.4001051-5.5196484,4.4169146-.0004271.0002746.07993-.051313.0799071-.0524113-.3491627-.3738649-.698295-.7466621-1.0474348-1.1194593-.0000076,0,.0749187.0647361.07485.0641565-.293931-.3815527-.587801-.7624953-.8816786-1.1434684,0,0-.0281155-.0396898-.0280316-.0395372-.0175436-.7813182-.1650392-1.5023849-.9058506-1.9475145-4.2689752-7.1510555-4.6855281-15.0858699-4.5935769-23.0897219.0762764-6.6396034.33406-13.2771323.5114331-19.9155155,4.6894258.814571,6.4615243-.9790045,6.102377-5.8478365-.2457396-3.3313639-.9869248-6.8819979.7276995-10.1482138.056414,9.9718215.2763493,19.9461751.1217295,29.9147477-.1448946,9.3418949-.0107168,18.5805842,3.9699794,27.2943678.114323.7980667.3619619,1.4917074,1.292938,1.6500089l.0953073-.036517Z"/>
    <path class="cls-7"
          d="m84.0469136,165.0339553c4.6652538.8162794,6.5459394-.901074,6.1424221-5.8217224-.2459989-2.9997361-.983561-6.2448411.7277148-9.1747769-.0004653,15.3442196-.0009306,30.6883476-.0013959,46.0324909-1.3446915,3.6407978-1.3501376,7.2813363.0020747,10.9216154.0000534,1.0109149.0000992,2.0218299.0001526,3.0327448-2.3074824.3308499-4.6149648.6616998-6.9224396.9925496.0171546-15.3276389.0343167-30.6552626.0514713-45.9829015Z"/>
    <path class="cls-6"
          d="m83.9954346,211.0168569c2.3074824-.3308499,4.6149648-.6616998,6.9224548-.9924886.0011441,9.9953273.0022807,19.9906088.0034172,29.985875-1.7146243,3.2662159-.9734391,6.8168499-.7276995,10.1482138.3591473,4.868832-1.4129512,6.6624075-6.102377,5.8478365-.0319293-14.9965145-.0638662-29.9929832-.0957955-44.9894367Z"/>
    <path class="cls-9"
          d="m88.1733739,299.0115309c.7408114.4451296.888307,1.1661963.9058506,1.9475145-.8473314-.3956775-.998351-1.1149748-.9058506-1.9475145Z"/>
    <path class="cls-14"
          d="m206.0558119,434.909012c.4903351-.8172862,1.2647843-.931993,2.1169593-.8553591-.5161317.7538313-1.154748,1.2052149-2.1169593.8553591Z"/>
    <path class="cls-9"
          d="m89.9140924,302.0778946c.3491322.3727972.6982645.7455944,1.0474272,1.1194593-.3491246-.3724311-.6982797-.7459605-1.0474272-1.1194593Z"/>
    <path class="cls-15"
          d="m356.1540193,341.1912451c.0547664-.5405559.2017968-.9079534.8008409-.4266118-.1843753.2974141-.4512815.4396078-.8008409.4266118Z"/>
    <path class="cls-14"
          d="m208.1380806,434.10521c.088206-.5182857.2653655-.8635655.8414962-.4324691-.1869992.3262128-.4674674.470359-.8414962.4324691Z"/>
    <path class="cls-15"
          d="m148.9250203,403.7515562c-.3672402.3713939-.7344957.7427877-1.1016749,1.1139985.3672707-.3714854.7344805-.7427572,1.1016749-1.1139985Z"/>
    <path class="cls-9"
          d="m89.1072561,300.9985826c.2938776.3809731.5877476.7619157.8816786,1.1434684-.2938471-.3807596-.5877629-.7621293-.8816786-1.1434684Z"/>
    <path class="cls-14"
          d="m55.9475207,499.7164786c-.36319.3537912-.7263876.707552-1.0905119,1.0611602.3628887-.3538523.7266965-.7075215,1.0905119-1.0611602Z"/>
    <path class="cls-14"
          d="m54.9271411,500.7023777c-.348194.36755-.6963881.7350999-1.0453296,1.1025584.3479461-.36755.6966359-.7350389,1.0453296-1.1025584Z"/>
    <path class="cls-14"
          d="m53.9554678,501.7282716c-.3533923.3617536-.706796.7234767-1.0608556,1.0851693.3531749-.3617841.7070134-.7234767,1.0608556-1.0851693Z"/>
    <path class="cls-14"
          d="m52.9652975,502.7380883c-.3621335.3518388-.7242671.7036776-1.0871824,1.0553943.3618742-.3518998.7245302-.7036471,1.0871824-1.0553943Z"/>
    <path class="cls-14"
          d="m51.9524769,503.7232552c-.3606385.3735904-.7212808.7471502-1.0818812,1.1206491.3606538-.3736209.7212656-.7471502,1.0818812-1.1206491Z"/>
    <path class="cls-1"
          d="m90.9213066,240.0102433c-.0011365-9.9952663-.002273-19.9905478-.0034172-29.985875-.000061-1.010976-.0001068-2.0218909-.0001526-3.0328211-.0006865-3.6405385-.0013882-7.2810769-.0020823-10.9216002.0004653-15.3441433.0009306-30.6882713.0013959-46.0324909.0002441-1.0047067.0005034-2.0093372.0007704-3.0139982-.0001449-.9832755-.0002975-1.9665052-.00045-2.9497349-.0008696-18.0039689-.0017467-36.0079378-.0026315-54.0119524.0446522-15.9959511.089312-31.9918488.1339795-47.9878572,6.0085265-20.8902775,22.1384247-33.3847369,44.0359075-34.1397123,31.1145217-1.0727553,62.2354507-.3785621,93.3542286-.3880984,24.796458-.0075991,49.5929008-.2355284,74.3893436-.2345694,26.1297538.0010105,52.2595687.2346428,78.389292.2270989,34.2826-.0098986,68.5651084-.2268091,102.8476779-.224503,35.1158736.0023624,70.2316862.2199774,105.3475598.2330774,25.296053.0094362,50.5920451-.2422648,75.8880981-.2335264,36.11485.0124746,72.2297001.1932274,108.3446111.2272372,15.3112924.0144184,30.6239273-.3154857,45.9337553-.2027723,12.8293202.0944501,24.9640983,2.7109117,35.5067748,10.7414126,5.0299693,3.8313473,8.4334212,8.8637814,11.7784148,14.0238574-.0417384.9277258.0756051,1.7960885.8981086,2.400759-.089579.2552151-.0170859.450148.2175402.5849591-.0183063,1.0672959-.0728592,2.1463295.9446677,2.8729179,0,0,.0516849.1131243.0516239.1128917.3237169,2.3397905.6475559,4.6798098.9713949,7.0198291.0389315,13.9244899.0698081,27.8490104.1318666,41.7733897.0049427,1.1126639-.2916198,2.3572253.8120078,3.2164969.0502204,1.3237504.1004407,2.6475083.1506611,3.9712587-.0010984,8.6794859-.0021968,17.3589794-.0033562,26.0384195-.0236152,24.6651866-.8470339,49.3412948,1.0074584,73.9809469-.0016476,2.9968989-.0032951,5.9938131-.0048817,8.9907121-.0002441,13.5941167-.0963523,27.1891182.0274595,40.7821061.1131941,12.4172887-.3849821,24.8511123.7926031,37.24668-.0036002.5951332-.0072005,1.1902664-.0106177,1.7859792-.8211609,1.6101971-1.0153911,3.315607-.7770427,5.0870648-1.5573805,4.5695723-3.2124558,9.0925601-6.1886379,12.9860333-11.2881713,12.4240613-25.6674885,18.0112601-42.1087086,18.0740438-49.8041406.190212-99.6093796.0881351-149.4141914.106897-46.1404337.0173891-92.2808675.0535705-138.4213012.0633938-51.1373296.0109216-102.2747202.0295309-153.4118973-.0584212-3.6705412-.006315-6.797537.8456883-9.8228716,2.8492444-7.1789494,4.7542625-14.4550444,9.3618771-21.6917502,14.0287671-.399078.2792318-.798217.5585246-1.197356.837848,0,0,.0242559-.1175745.0250187-.1164762-.3353109-.0174806-.6004476.1106799-.7946473.3855797-.3623738.2314576-.7247781.4628848-1.0872435.6943119-22.9378926,14.3925952-45.8757547,28.785221-68.8132507,43.1778467-16.9606623,10.6051649-33.9361527,21.1873274-50.8769373,31.8247384-9.1046685,5.7169456-18.1497347,11.5287379-27.2217112,17.2977287-33.7948736,21.0549875-67.7604842,41.838858-101.0838629,63.6423686-.0000229-.0002135.0311436.0083284.0311436.0087555-.6350695.3864644-1.2701313.7725322-1.9051932,1.1585695-11.5575261,7.1504759-23.1222831,14.2892981-34.6701755,21.4552716-8.5966221,5.3345997-17.1744802,10.6994014-25.7524947,16.0638981-1.2509974.782386-2.3783165,1.885646-4.5247909,1.1205881,6.5491239-6.9289636,12.9313322-13.7355326,19.3950914-20.4636982,1.01226-1.0537165,2.5548314-1.6322538,2.513257-3.4285139.3317908-.2521415.6638219-.5057473.9958529-.7593531,0,0,.0342252-.0062845.0341642-.0062845.7013727.1375262,1.0201469-.2560769,1.1896369-.8569149,0,0-.0683093.0656514-.0683665.0649192.3650282-.3489711.7301175-.6972711,1.0952029-1.0455405,0,0-.0670164.0676343-.0672147.0668106.3403719-.371821.6809383-.7428182,1.0215047-1.113846-.0000038,0-.0696022.0693427-.0696213.0687936.3667101-.3459204.7334355-.6913222,1.100157-1.0366935-.0000038,0-.0698005.0729731-.0699073.0722409.3681594-.3452187.7364331-.6896443,1.1047069-1.0341004,0,0-.0648502.0671767-.0651591.06617.3466342-.3658721.6935773-.7307374,1.040528-1.0955722.0000076,0,.0462387.0324901.0465553.0324596,14.1520746-14.2297787,28.5280814-28.2439024,41.7259995-43.3907255,8.717482-7.1360765,15.9283454-15.7948557,23.8576942-23.7241483,9.5583451-9.5581905,18.754942-19.4781042,28.1083172-29.2417297,16.6272887-17.0093448,33.681237-33.610504,49.3387327-51.5455268,1.0827584-1.2402676,3.037966-1.4547632,3.5906951-3.2380273,10.8052198-9.8824814,20.5137989-20.8440917,30.7813923-31.2555973.8666522-.878819,1.6705899-1.7676444,1.0491205-3.0258502-.55517-1.1239744-1.7515802-.671157-2.6646694-.6635912-6.2965233.0521062-12.608317.8002937-18.8526825.7938567-25.3082878-.0260531-50.5880787,1.1353841-75.8853216,1.3321551-15.5475356.1209303-29.937234-3.5109137-41.7556787-14.3321606-1.94086-1.7771016-3.4984007-3.9727612-5.2324144-5.975219.0006712-.0002746-.0946361.0362425-.0957879.0364255-.1066191-.8038325-.4761705-1.4013758-1.2917862-1.650192-3.9806962-8.7137835-4.114874-17.9524728-3.9699794-27.2943678.1546198-9.9685725-.0653155-19.9429261-.1217295-29.9147477Z"/>
    <path class="cls-10"
          d="m871.0422528,94.0559173c-.0502204-1.3237504-.1004407-2.6475083-.1507221-3.9713426-.0001831-13.4319027.0162926-26.8637672-.0225168-40.2954792-.0046376-1.5948863.5286258-3.3576839-.9212966-4.6943236-.323839-2.3400193-.647678-4.6800386-.9713949-7.0198291,2.888983-.0646141,5.9490081.1189702,5.9685959-4.1109509,3.4428715,9.7487495,2.1526414,19.8226556,2.0477461,29.8169342-.0385043,8.4600023-.0831718,16.9181971-.1129501,25.3764452q-.0208082,5.9037789-5.8374615,4.898546Z"/>
    <path class="cls-10"
          d="m868.9246986,37.9620512c-1.0175268-.7265884-.962974-1.805622-.9446677-2.8729179,1.0733612.7081926.9089703,1.8234496.9446677,2.8729179Z"/>
    <path class="cls-10"
          d="m867.7624907,34.5041742c-.8225034-.6046705-.939847-1.4730332-.8981086-2.400759.9737747.548137,1.0000748,1.4504694.8981086,2.400759Z"/>
    <path class="cls-3"
          d="m871.0422528,94.0559173q5.8258065,1.0052635,5.8374615-4.898546c.0297783-8.4582481.0744457-16.9164429.1129501-25.3764452,1.2028479,4.5468444.6491425,9.2083805.7036343,13.8025949.2002713,16.8852951.1454743,33.7736028.1865415,50.6594394-.0228219,5.6119401-.0453997,11.2252224-.0673673,16.8381387-4.6885562.7268325-6.1600191-1.1422634-6.0679992-5.9418442.121432-6.3287662,1.1604993-12.7668776-.708577-19.0448723.0011594-8.6794859.0022578-17.3589794.0033562-26.0384653Z"/>
    <path class="cls-6"
          d="m872.0414733,203.0659958c.0015865-2.9968989.0032341-5.9938131.0048817-8.9907121,1.2036412,2.7117792.373205,7.4135389,5.8332511,5.9612773.0050648,10.7429046-.0254458,21.4860533.0483897,32.2284851.0131195,1.9129042-.6748323,3.9889757.8048073,5.7195997-.0001831.6835886-.0003051,1.367162-.0004882,2.0507506-.1117907.0938399-.3323819.2177142-.3162113.2762269.066391.2401522.2046648.4604137.3165164.6879969.0673063,2.6334827.1345515,5.2669654.2018578,7.9004328.685328,4.6207785-.7891249,7.1385171-5.9299085,6.0872412-.0416164-15.5625591-.0627907-31.1254233-.1498068-46.6879367-.0098244-1.7568602.5970915-3.6704202-.8132892-5.2333618Z"/>
    <path class="cls-2"
          d="m877.8148016,145.0814805c.0226388-5.6132976.0452166-11.22658.0680385-16.8385201,1.4685948,10.9223934.5804327,21.9012402.7502544,32.8519594.1754357,11.3116186.0381992,22.6280727.037711,33.9423912-.2497594-.0014338-.4994577-.0034473-.749156-.0060862-.0356363-16.6499097-.0712116-33.2998346-.1068479-49.9497443Z"/>
    <path class="cls-11"
          d="m877.9216496,195.0312248c.2496983.0026389.4993967.0046523.7492171.0060862.0206251,14.3158088.0413113,28.6315718.0619974,42.9473501-1.4797007-1.7306393-.7917488-3.8067108-.8048683-5.719615-.0738355-10.7424318-.043325-21.4855804-.0482067-32.2285766.0140349-1.6684657.0279477-3.3368552.0418605-5.0052447Z"/>
    <path class="cls-11"
          d="m878.73262,240.9996202c-.1118517-.2275832-.2501255-.4478447-.3165164-.6879969-.0161706-.0585127.2044207-.1823869.3162113-.2762269.1428504.3213622.1429724.6427701.0003051.9642238Z"/>
    <path class="cls-2"
          d="m872.0414733,203.0659958c1.4103807,1.5629416.8034648,3.4765016.8132892,5.2333618.0870161,15.5625134.1081904,31.1253776.1498068,46.6879367-.0468642,8.7020383-.0948878,17.4042596-.1429114,26.1069996-1.1777072-12.3950795-.679531-24.8289031-.7927251-37.2461919-.1238118-13.592988-.0277036-27.1879894-.0274595-40.7821061Z"/>
    <path class="cls-2"
          d="m872.0738755,287.9678259c-.2383484-1.7714578-.0441183-3.4768677.7770427-5.0870648-.1262527,1.7155993.627602,3.5660706-.7770427,5.0870648Z"/>
    <path class="cls-15"
          d="m349.8171611,336.8556016c.399139-.2792928.798278-.5585856,1.197356-.837848-.3992.2793233-.798278.5585856-1.197356.837848Z"/>
    <path class="cls-15"
          d="m349.0475325,337.1247355c.1941997-.2748998.4593363-.4030603.7946473-.3855797-.0198929.6317418-.1356194,1.0662244-.7946473.3855797Z"/>
    <path class="cls-14"
          d="m98.0904774,494.9290548c.6350618-.3860373,1.2701237-.7721051,1.9051932-1.1585695-.3086142.9224137-1.0434608,1.1447497-1.9051932,1.1585695Z"/>
    <path class="cls-14"
          d="m62.2928532,503.0672298c-.3469545.3648348-.6938976.7297002-1.040528,1.0955722.3470575-.3644993.6938023-.7300357,1.040528-1.0955722Z"/>
    <path class="cls-14"
          d="m61.3174881,504.096632c-.3682814.3444561-.7365552.6888816-1.1047069,1.0341004.3683119-.344212.7365132-.6891562,1.1047069-1.0341004Z"/>
    <path class="cls-14"
          d="m60.2826808,505.0584915c-.3667216.3453713-.7334469.6907731-1.1001494,1.0366935.3667292-.3451882.7334393-.6909256,1.1001494-1.0366935Z"/>
    <path class="cls-14"
          d="m59.2521489,506.0263914c-.3405702.3710278-.6811366.742025-1.0215047,1.113846.340635-.3707227.6810718-.7422691,1.0215047-1.113846Z"/>
    <path class="cls-14"
          d="m58.2978551,507.0734268c-.3650854.3482695-.7301747.6965694-1.0952067,1.0455405.3651083-.3480254.7301556-.696783,1.0952067-1.0455405Z"/>
    <path class="cls-14"
          d="m57.2710226,508.0540481c-.1694937.600838-.488268.9944411-1.1896369.8569149.3965876-.2856383.7931103-.5712766,1.1896369-.8569149Z"/>
    <path class="cls-14"
          d="m56.0472215,508.9172475c-.3320349.2536058-.6640659.5072116-.9958529.7593531.3321112-.2540939.663982-.5067235.9958529-.7593531Z"/>
    <path class="cls-7"
          d="m90.9173708,144.073723c.0001526.9832297.0003051,1.9664594.00045,2.9497349-1.0882732-.9830619-1.0881664-1.9663221-.00045-2.9497349Z"/>
    <path class="cls-9"
          d="m95.0130155,297.2193587c.8156157.2488162,1.1851671.8463595,1.2917862,1.650192-.9298243-.1584846-1.1774632-.8521253-1.2917862-1.650192Z"/>
    <path class="cls-6"
          d="m90.9156546,196.069947c.0006941,3.6405232.0013959,7.2810617.0020823,10.9216002-1.35222-3.6402639-1.3467738-7.2808024-.0020823-10.9216002Z"/>
    <path class="cls-7"
          d="m877.9216496,195.0312248c-.0139128,1.6683895-.0278256,3.3367789-.0418605,5.0052447-5.4602291,1.4523532-4.6297929-3.2494065-5.8334341-5.9611857-1.8544923-24.6396521-1.0310735-49.3157603-1.0074584-73.9809469,1.8690763,6.2780405.830009,12.7161519.708577,19.0449181-.0920198,4.7995808,1.379443,6.6686767,6.0679992,5.9418442.0349651,16.650291.0705404,33.300216.1061767,49.9501257Z"/>
    <path class="cls-3"
          d="m869.9477173,45.0947757c1.4499224,1.3366358.916659,3.0994334.9212966,4.6943198.0388094,13.431712.0223337,26.8635765.0225168,40.2954792-1.1035666-.8591877-.8070041-2.1037492-.8119468-3.216413-.0620585-13.9243793-.0929351-27.8488998-.1318666-41.7733859Z"/>
</svg>